# xmcd
#
# Track frame offsets:
#	150
#	11605
#	27564
#	40791
#	54662
#	68468
#	80554
#	94934
#	105604
#	120228
#	135665
#	152535
#
# Disc length: 2277 seconds
#
# Revision: 1
# Processed by: cddbd v1.5.2PL0 Copyright (c) Steve Scherf et al.
# Submitted via: EasyCDDAExtractor 16.0.6.1
#
DISCID=8f08e30c
DTITLE=Συλλογικός δίσκος - Τα κλασικά-Σ. Ξαρχάκος
DYEAR=1900
DGENRE=Λαϊκή
TTITLE0=Μπιθικώτσης Γρηγόρης-Κούρτη Ρία - Στα χέρια σου μεγάλωσαν [Σ. Ξαρχάκος
TTITLE0=Λ. Παπαδόπουλος]
TTITLE1=Γαβαλάς Πάνος-Κούρτη Ρία - Όνειρο δεμένο [Σ. Ξαρχάκος-Β. Γκούφας]
TTITLE2=Μοσχολιού Βίκυ - Τα τραίνα που 'φύγαν [Β. Γκούφας-Β. Ανδρεόπουλος]
TTITLE3=Μπιθικώτσης Γρηγόρης - Άπονη ζωή [Σ. Ξαρχάκος-Λ. Παπαδόπουλος]
TTITLE4=Μπιθικώτσης Γρηγόρης - Μάτια βουρκωμένα [Σ. Ξαρχάκος-Ν. Γκάτσος]
TTITLE5=Μπιθικώτσης Γρηγόρης-Βουγιουκλάκη Αλίκη - Υπομονή [Σ. Ξαρχάκος-Α. Σακε
TTITLE5=λλάριος]
TTITLE6=Φυτούση Ζωή - Τα δάκρυά μου είναι καυτά [Σ. Ξαρχάκος-Β. Γκούφας]
TTITLE7=Μπιθικώτσης Γρηγόρης-Ιωαννίδης Μ. - Δεν σού χρωστάω τίποτα [Σ. Ξαρχάκο
TTITLE7=ς-Λ. Παπαδόπουλος]
TTITLE8=Μοσχολιού Βίκυ-Ιωαννίδης Μ. - Παλληκαράκι πού 'λυωσα [Σ. Ξαρχάκος-Λ. Π
TTITLE8=απαδόπουλος]
TTITLE9=Κόκοτας Σταμάτης - Με τι καρδιά τον κόσμο ν' αρνηθώ [Σ. Ξαρχάκος-Ν. Γκ
TTITLE9=άτσος]
TTITLE10=Μερκούρη Μελίνα - Να με θυμάσαι [Σ. Ξαρχάκος-Β. Γκούφας]
TTITLE11=Ξυλούρης Νίκος - Αυτόν τον κόσμο τον καλό [Σ. Ξαρχάκος-Β. Ανδρεόπουλο
TTITLE11=ς]
EXTD=
EXTT0=
EXTT1=
EXTT2=
EXTT3=
EXTT4=
EXTT5=
EXTT6=
EXTT7=
EXTT8=
EXTT9=
EXTT10=
EXTT11=
PLAYORDER=
